[img]http://img16.imageshack.us/img16/8420/posterrrf.jpg[/img]
[code]
  I Am Number Four TS XViD - IMAGiNE

********************************************************************************************************************



Ripper ...........: IMAGiNE                                        IMDB Rating.......:7.8/10                             

Video Codec.......: XVID                                         Release Date......:28/02/11

Audio Codec.......:MP3                                           Theatre Date......:18/02/11

Audio Bitrate.....:128                                              Runtime.......:1h 38mn

Subtitles.........:NIL                                                 Language..........:ENGLISH

Resolution...... 720 x 384                                      IMDb URL.......... http://www.imdb.com/title/tt1464540/





DETAILS:



Video

ID                               : 0

Format                           : MPEG-4 Visual

Format profile                   : Advanced Simple@L5

Format settings, BVOP            : Yes

Format settings, QPel            : No

Format settings, GMC             : No warppoints

Format settings, Matrix          : Default (MPEG)

Muxing mode                      : Packed bitstream

Codec ID                         : XVID

Codec ID/Hint                    : XviD

Duration                         : 1h 38mn

Bit rate                         : 865 Kbps

Width                            : 720 pixels

Height                           : 384 pixels

Display aspect ratio             : 1.875

Frame rate                       : 25.000 fps

Resolution                       : 24 bits

Colorimetry                      : 4:2:0

Scan type                        : Progressive

Bits/(Pixel*Frame)               : 0.125

Stream size                      : 611 MiB (86%)

Writing library                  : XviD 61



Audio

ID                               : 1

Format                           : MPEG Audio

Format version                   : Version 1

Format profile                   : Layer 3

Codec ID                         : 55

Codec ID/Hint                    : MP3

Duration                         : 1h 38mn

Bit rate mode                    : Constant

Bit rate                         : 128 Kbps

Channel(s)                       : 2 channels

Sampling rate                    : 44.1 KHz

Resolution                       : 16 bits

Stream size                      : 90.3 MiB (13%)

Alignment                        : Split accross interleaves

Interleave, duration             : 40 ms (1.00 video frame)

Interleave, preload duration     : 500 ms





SOURCES:



VIDEO:Russian video ........... Thanks

AUDIO:Own

Plot:John is an extraordinary teen, masking his true identity and passing as a typical high school student to elude a deadly enemy seeking to destroy him. Three like him have already been killed ... he is Number Four.


NOTES:



IMAGiNE bringing you another release.......... I Am Number Four



Right here we go with a half decent TS of i am number four.....

The video was the russian cam whic wasn't too bad,but had issues....dark,blurry,missing footage etc....

The audio was our own decent line.

For the video we had to crop and resize and change AR slightly to source,also then used a script to change

the rgb colours,increase the chroma and brightness,whilst lowering the contrast.

Also we translated the russian subs to english and hardcoded them....

Audio we just need to sync and then mux to our encode.

Enjoy folks 
[/code]
Screens:
[img]http://img5.imageshack.us/img5/5342/65675304.jpg[/img]
[img]http://img191.imageshack.us/img191/1855/66623079.jpg[/img]
[img]http://img19.imageshack.us/img19/5889/84583353.jpg[/img]
